# xmcd CD database file
#
# Track frame offsets:
#	150
#	25006
#	50618
#	90481
#	116809
#	141603
#	164995
#	181850
#	204963
#	219583
#
# Disc length: 3293 seconds
#
# Revision: 2
# Processed by: cddbd v1.5.2PL0 Copyright (c) Steve Scherf et al.
# Submitted via: CDex 1.50beta9
#
DISCID=930cdb0a
DTITLE=Ballaké Sissoko and Vincent Segal - Chamber Music
DYEAR=2009
DGENRE=Jazz
TTITLE0=Chamber Music
TTITLE1=Oscarine
TTITLE2=Houdesti
TTITLE3=Wo Yé N'Gnougobine
TTITLE4=Histoire de Molly
TTITLE5="Ma-ma" FC
TTITLE6=Regret-à Kader Barry
TTITLE7=Halinkata Djoubé
TTITLE8=Future
TTITLE9=Mako Mady
EXTD=YEAR: 2009
EXTT0=
EXTT1=
EXTT2=
EXTT3=
EXTT4=
EXTT5=
EXTT6=
EXTT7=
EXTT8=
EXTT9=
PLAYORDER=
